<svg width="188" height="133" viewBox="0 0 188 133" fill="none" xmlns="http://www.w3.org/2000/svg">
<path d="M59.2368 13.6768C80.2194 2.30279 104.261 -2.14556 127.924 0.966797C148.575 3.68297 168.015 12.0361 184.147 25.0276C188.056 28.1757 188.191 33.9598 184.739 37.6035L183.182 39.247C179.695 42.9275 173.896 43.0032 169.93 39.8454C159.055 31.1869 146.341 25.1066 132.705 22.1602C113.101 17.9244 92.6802 20.3999 74.5874 29.2051C56.4948 38.0103 41.7336 52.657 32.5776 70.8887C24.8513 86.2738 21.4782 103.492 22.7399 120.617C23.1051 125.574 19.8881 130.233 14.9987 131.127L10.7875 131.898C5.85048 132.802 1.07733 129.532 0.572952 124.539C-1.50859 103.93 2.1021 83.0814 11.0972 64.2949C21.4043 42.7681 38.2542 25.0509 59.2368 13.6768Z" fill="#231F52"/>
</svg>
