<svg width="20" height="12" viewBox="0 0 20 12" fill="none" xmlns="http://www.w3.org/2000/svg">
<path d="M19.92 11.3803C19.8186 11.6245 19.6245 11.8186 19.3802 11.92C19.26 11.9713 19.1309 11.9984 19.0003 12H14.0017C13.7366 12 13.4823 11.8947 13.2948 11.7072C13.1074 11.5198 13.002 11.2656 13.002 11.0005C13.002 10.7354 13.1074 10.4812 13.2948 10.2937C13.4823 10.1063 13.7366 10.001 14.0017 10.001H16.591L11.0026 4.41367L7.71356 7.71207C7.62063 7.80576 7.51006 7.88011 7.38823 7.93086C7.26641 7.9816 7.13574 8.00773 7.00377 8.00773C6.87179 8.00773 6.74113 7.9816 6.6193 7.93086C6.49748 7.88011 6.38691 7.80576 6.29397 7.71207L0.295713 1.71497C0.202011 1.62205 0.127639 1.5115 0.0768846 1.3897C0.0261307 1.2679 0 1.13726 0 1.00531C0 0.873364 0.0261307 0.742723 0.0768846 0.620922C0.127639 0.499122 0.202011 0.388575 0.295713 0.295656C0.388649 0.201973 0.499218 0.127613 0.621042 0.076869C0.742866 0.026125 0.873533 0 1.00551 0C1.13748 0 1.26815 0.026125 1.38997 0.076869C1.5118 0.127613 1.62236 0.201973 1.7153 0.295656L7.00377 5.5931L10.2928 2.29469C10.3857 2.20101 10.4963 2.12665 10.6181 2.0759C10.74 2.02516 10.8706 1.99903 11.0026 1.99903C11.1346 1.99903 11.2652 2.02516 11.3871 2.0759C11.5089 2.12665 11.6195 2.20101 11.7124 2.29469L18.0006 8.59165V6.0029C18.0006 5.73781 18.1059 5.48358 18.2934 5.29613C18.4809 5.10869 18.7351 5.00338 19.0003 5.00338C19.2654 5.00338 19.5197 5.10869 19.7072 5.29613C19.8947 5.48358 20 5.73781 20 6.0029V11.0005C19.9984 11.1311 19.9712 11.2601 19.92 11.3803Z" fill="white"/>
</svg>
