<svg width="50" height="50" viewBox="0 0 50 50" fill="none" xmlns="http://www.w3.org/2000/svg">
<rect width="50" height="50" rx="25" fill="#5C5891" fill-opacity="0.14"/>
<path d="M29.4356 28.0843L25.1015 40.5952M29.4356 28.0843H20.7675M29.4356 28.0843L37.3813 33.2358M29.4356 28.0843L37.3813 18.5171L25.1015 20.7249M29.4356 28.0843L25.1015 20.7249M25.1015 40.5952L20.7675 28.0843M25.1015 40.5952L12.5906 33.2358V18.5171L25.1015 11.1577M25.1015 40.5952L37.6125 33.2358V18.5171L25.1015 11.1577M20.7675 28.0843L25.1015 20.7249M20.7675 28.0843L12.8217 18.5171L25.1015 20.7249M20.7675 28.0843L12.8217 33.2358M25.1015 20.7249V11.1577" stroke="#1B1B1B" stroke-width="1.5"/>
</svg>
