<svg width="14" height="22" viewBox="0 0 14 22" fill="none" xmlns="http://www.w3.org/2000/svg">
<path d="M7 5C7.07739 5 7.15755 5.01712 7.24046 5.05136C7.32338 5.08559 7.40907 5.1398 7.49751 5.21398L11.801 8.80884C11.9337 8.92867 12 9.097 12 9.31384C12 9.51355 11.9337 9.68188 11.801 9.81883C11.6739 9.95578 11.5108 10.0243 11.3118 10.0243C11.2344 10.0243 11.1542 10.0071 11.0713 9.9729C10.9884 9.93866 10.9055 9.8873 10.8226 9.81883L7 6.62625L3.17745 9.81883C3.089 9.8873 3.00332 9.93866 2.9204 9.9729C2.84301 10.0071 2.76562 10.0243 2.68823 10.0243C2.48922 10.0243 2.32338 9.95578 2.19071 9.81883C2.06357 9.68188 2 9.51355 2 9.31384C2 9.097 2.06357 8.92867 2.19071 8.80884L6.50249 5.21398C6.59093 5.1398 6.67385 5.08559 6.75124 5.05136C6.83416 5.01712 6.91708 5 7 5ZM7 17C6.91708 17 6.83416 16.9829 6.75124 16.9486C6.67385 16.9144 6.59093 16.8602 6.50249 16.786L2.19071 13.1912C2.06357 13.0713 2 12.903 2 12.6862C2 12.4864 2.06357 12.3181 2.19071 12.1812C2.32338 12.0442 2.48922 11.9757 2.68823 11.9757C2.76562 11.9757 2.84301 11.9929 2.9204 12.0271C3.00332 12.0613 3.089 12.1127 3.17745 12.1812L7 15.3738L10.8226 12.1812C10.9055 12.1127 10.9884 12.0613 11.0713 12.0271C11.1542 11.9929 11.2344 11.9757 11.3118 11.9757C11.5108 11.9757 11.6739 12.0442 11.801 12.1812C11.9337 12.3181 12 12.4864 12 12.6862C12 12.903 11.9337 13.0713 11.801 13.1912L7.49751 16.786C7.40907 16.8602 7.32338 16.9144 7.24046 16.9486C7.15755 16.9829 7.07739 17 7 17Z" fill="#787776"/>
</svg>
