<svg width="50" height="50" viewBox="0 0 50 50" fill="none" xmlns="http://www.w3.org/2000/svg">
<rect width="50" height="50" rx="25" fill="#5C5891" fill-opacity="0.14"/>
<path d="M21.598 28.5483C17.6009 28.5483 9.64062 30.5469 9.64062 34.5271V37.5164H33.5555V34.5271C33.5555 30.5469 25.5952 28.5483 21.598 28.5483ZM21.598 25.559C24.8949 25.559 27.5768 22.8771 27.5768 19.5803C27.5768 16.2834 24.8949 13.6016 21.598 13.6016C18.3012 13.6016 15.6193 16.2834 15.6193 19.5803C15.6193 22.8771 18.3012 25.559 21.598 25.559ZM33.6238 28.6508C35.6053 30.0857 36.9719 31.9989 36.9719 34.5271V37.5164H43.8047V34.5271C43.8047 31.0765 37.826 29.112 33.6238 28.6508ZM31.8473 25.559C35.1441 25.559 37.826 22.8771 37.826 19.5803C37.826 16.2834 35.1441 13.6016 31.8473 13.6016C30.9248 13.6016 30.0707 13.8236 29.285 14.1994C30.3611 15.7197 30.9932 17.5817 30.9932 19.5803C30.9932 21.5789 30.3611 23.4408 29.285 24.9611C30.0707 25.3369 30.9248 25.559 31.8473 25.559Z" fill="black"/>
</svg>
