<svg width="52" height="52" viewBox="0 0 52 52" fill="none" xmlns="http://www.w3.org/2000/svg">
<g filter="url(#filter0_d_1159_14258)">
<g opacity="0.3">
<rect width="48" height="48" rx="24" transform="matrix(1 7.17432e-06 5.50783e-06 1 2 2)" fill="#242424" style="mix-blend-mode:plus-lighter"/>
</g>
<g filter="url(#filter1_d_1159_14258)">
<rect width="48" height="48" rx="24" transform="matrix(1 7.17432e-06 5.50783e-06 1 2 2)" fill="black" fill-opacity="0.01" shape-rendering="crispEdges"/>
</g>
<path d="M32.75 19.4547L26.177 19.4546L23.177 18L19.25 18C18.6533 18 18.081 18.2299 17.659 18.639C17.2371 19.0482 17 19.6032 17 20.1818L17.0001 34L35.0001 34.0001L35 21.6365C35 21.0578 34.763 20.5029 34.341 20.0937C33.919 19.6845 33.3467 19.4547 32.75 19.4547ZM19.25 19.4546L22.823 19.4546L25.823 20.9092L32.75 20.9092C32.9489 20.9092 33.1397 20.9858 33.2803 21.1222C33.421 21.2586 33.5 21.4436 33.5 21.6365L33.5 22.2772L18.5 22.3593L18.5 20.1818C18.5 19.9889 18.579 19.804 18.7197 19.6676C18.8603 19.5312 19.0511 19.4546 19.25 19.4546ZM18.5001 32.5455L18.5 23.8138L33.5 23.7318L33.5001 32.5456L18.5001 32.5455Z" fill="white"/>
</g>
<defs>
<filter id="filter0_d_1159_14258" x="0" y="0" width="52.0625" height="52.0781" filterUnits="userSpaceOnUse" color-interpolation-filters="sRGB">
<feFlood flood-opacity="0" result="BackgroundImageFix"/>
<feColorMatrix in="SourceAlpha" type="matrix" values="0 0 0 0 0 0 0 0 0 0 0 0 0 0 0 0 0 0 127 0" result="hardAlpha"/>
<feOffset/>
<feGaussianBlur stdDeviation="1"/>
<feColorMatrix type="matrix" values="0 0 0 0 0 0 0 0 0 0 0 0 0 0 0 0 0 0 0.1 0"/>
<feBlend mode="normal" in2="BackgroundImageFix" result="effect1_dropShadow_1159_14258"/>
<feBlend mode="normal" in="SourceGraphic" in2="effect1_dropShadow_1159_14258" result="shape"/>
</filter>
<filter id="filter1_d_1159_14258" x="0" y="0" width="52.0005" height="52" filterUnits="userSpaceOnUse" color-interpolation-filters="sRGB">
<feFlood flood-opacity="0" result="BackgroundImageFix"/>
<feColorMatrix in="SourceAlpha" type="matrix" values="0 0 0 0 0 0 0 0 0 0 0 0 0 0 0 0 0 0 127 0" result="hardAlpha"/>
<feOffset/>
<feGaussianBlur stdDeviation="1"/>
<feComposite in2="hardAlpha" operator="out"/>
<feColorMatrix type="matrix" values="0 0 0 0 0 0 0 0 0 0 0 0 0 0 0 0 0 0 0.08 0"/>
<feBlend mode="normal" in2="BackgroundImageFix" result="effect1_dropShadow_1159_14258"/>
<feBlend mode="normal" in="BackgroundImageFix" in2="effect1_dropShadow_1159_14258" result="BackgroundImageFix"/>
<feBlend mode="normal" in="SourceGraphic" in2="BackgroundImageFix" result="shape"/>
</filter>
</defs>
</svg>
