<svg width="52" height="51" viewBox="0 0 52 51" fill="none" xmlns="http://www.w3.org/2000/svg">
<g filter="url(#filter0_d_2_50)">
<g clip-path="url(#clip0_2_50)">
<g opacity="0.3">
<path d="M2.00013 25.701C2.00006 12.6668 12.5664 2.00008 25.6006 2.00017C38.6348 2.00026 49.2013 12.6671 49.2013 25.7014C49.2014 38.7356 38.6351 49.4023 25.6009 49.4022C12.5666 49.4021 2.0002 38.7353 2.00013 25.701Z" fill="#242424" style="mix-blend-mode:plus-lighter"/>
</g>
<rect width="47.2012" height="47.4021" rx="23.6006" transform="matrix(1 7.1742e-06 5.50772e-06 1 2 2)" fill="black" fill-opacity="0.01"/>
<path d="M25.6035 22.6292C27.2993 22.6265 28.6756 23.9994 28.6778 25.6953C28.6798 27.391 27.3072 28.7677 25.6115 28.7708C23.9156 28.7736 22.5386 27.4015 22.5362 25.7056C22.534 24.0096 23.9075 22.632 25.6035 22.6292Z" stroke="white" stroke-width="1.5"/>
<path d="M28.9091 17.3472C29.7888 17.6763 30.6127 18.1375 31.3532 18.7151L31.368 21.7971L31.3692 22.0139L31.4847 22.1964C31.5448 22.2908 31.5992 22.3822 31.6482 22.4734L31.7509 22.6647L31.9396 22.7708L34.676 24.3238C34.8196 25.225 34.8207 26.1427 34.6795 27.0445L31.9481 28.6028L31.7686 28.7056L31.6663 28.8865C31.6085 28.9891 31.549 29.0915 31.4879 29.1925L31.3798 29.3704L31.3791 29.5784L31.3684 32.6614C30.6304 33.2436 29.8084 33.7093 28.9298 34.0435L26.1768 32.5081L26.0058 32.4126L25.2333 32.4139L25.0626 32.509L22.3009 34.0556C21.421 33.7263 20.5973 33.2646 19.8567 32.6867L19.843 29.6066L19.8417 29.3898L19.7262 29.2074L19.5628 28.9303L19.46 28.7391L19.2724 28.632L16.5321 27.078C16.3886 26.1769 16.3873 25.2589 16.5285 24.3573L19.2609 22.799L19.4414 22.6971L19.5427 22.5163C19.6006 22.4137 19.6609 22.3113 19.722 22.2103L19.8292 22.0324L19.8299 21.8244L19.8396 18.7414C20.5783 18.159 21.4008 17.6923 22.2802 17.3583L25.04 18.8957L25.21 18.9911L25.9835 18.9898L26.1542 18.8938L28.9091 17.3472Z" stroke="white" stroke-width="1.5"/>
</g>
</g>
<defs>
<filter id="filter0_d_2_50" x="-0.821228" y="-1.72253" width="52.0623" height="52.0809" filterUnits="userSpaceOnUse" color-interpolation-filters="sRGB">
<feFlood flood-opacity="0" result="BackgroundImageFix"/>
<feColorMatrix in="SourceAlpha" type="matrix" values="0 0 0 0 0 0 0 0 0 0 0 0 0 0 0 0 0 0 127 0" result="hardAlpha"/>
<feOffset/>
<feGaussianBlur stdDeviation="1"/>
<feColorMatrix type="matrix" values="0 0 0 0 0 0 0 0 0 0 0 0 0 0 0 0 0 0 0.1 0"/>
<feBlend mode="normal" in2="BackgroundImageFix" result="effect1_dropShadow_2_50"/>
<feBlend mode="normal" in="SourceGraphic" in2="effect1_dropShadow_2_50" result="shape"/>
</filter>
<clipPath id="clip0_2_50">
<path d="M1.20372 19.553C1.19662 14.0897 1.19307 11.3581 1.97907 9.1671C3.31978 5.42985 6.2566 2.48425 9.98982 1.13239C12.1784 0.339855 14.9101 0.33525 20.3733 0.32604L25.1787 0.317938C28.8948 0.311674 30.7528 0.308542 32.3077 0.552154C40.8673 1.89316 47.5878 8.59363 48.9544 17.1492C49.2027 18.7034 49.2051 20.5614 49.2099 24.2775C49.2147 27.9935 49.2171 29.8515 48.9729 31.4066C47.6286 39.9667 40.9256 46.6898 32.3695 48.0596C30.8151 48.3085 28.9571 48.3116 25.2411 48.3179C21.5251 48.3242 19.6671 48.3273 18.1121 48.0837C9.55253 46.7427 2.83201 40.0422 1.46546 31.4866C1.21721 29.9324 1.2148 28.0744 1.20997 24.3584L1.20372 19.553Z" fill="white"/>
</clipPath>
</defs>
</svg>
