<svg width="50" height="50" viewBox="0 0 50 50" fill="none" xmlns="http://www.w3.org/2000/svg">
<rect width="50" height="50" rx="25" fill="#5C5891" fill-opacity="0.14"/>
<g style="mix-blend-mode:plus-darker">
<path d="M16.2542 21.7036C17.494 21.7036 18.683 21.2111 19.5597 20.3344C20.4364 19.4577 20.929 18.2686 20.929 17.0288C20.929 15.789 20.4364 14.5999 19.5597 13.7232C18.683 12.8465 17.494 12.354 16.2542 12.354C15.0143 12.354 13.8253 12.8465 12.9486 13.7232C12.0719 14.5999 11.5793 15.789 11.5793 17.0288C11.5793 18.2686 12.0719 19.4577 12.9486 20.3344C13.8253 21.2111 15.0143 21.7036 16.2542 21.7036ZM39.6282 31.0532H31.8368V38.8446H39.6282V31.0532Z" stroke="black" stroke-width="1.78088"/>
</g>
<g style="mix-blend-mode:plus-darker">
<path d="M10.0178 26.3818H41.1832" stroke="black" stroke-width="1.78088"/>
</g>
</svg>
