<svg width="20" height="26" viewBox="0 0 20 26" fill="none" xmlns="http://www.w3.org/2000/svg">
  <path fill-rule="evenodd" clip-rule="evenodd" d="M4.90243 7.37611C5.21249 7.35674 5.47955 7.59238 5.49892 7.90243L6.20205 19.1524C6.20218 19.1545 6.2023 19.1566 6.2024 19.1587C6.22185 19.5372 6.47319 19.75 6.76564 19.75H13.2344C13.524 19.75 13.7742 19.542 13.7979 19.1532L14.5011 7.90243C14.5205 7.59238 14.7876 7.35674 15.0976 7.37611C15.4077 7.39549 15.6433 7.66255 15.6239 7.97261L14.9208 19.2218C14.9208 19.2219 14.9208 19.2219 14.9208 19.2219C14.8651 20.1332 14.1872 20.875 13.2344 20.875H6.76564C5.82175 20.875 5.12793 20.1397 5.07906 19.2198L4.37611 7.97261C4.35674 7.66255 4.59238 7.39549 4.90243 7.37611Z" fill="#2D1067"/>
  <path fill-rule="evenodd" clip-rule="evenodd" d="M3.25 7.9375C3.25 7.62684 3.50184 7.375 3.8125 7.375H16.1875C16.4982 7.375 16.75 7.62684 16.75 7.9375C16.75 8.24816 16.4982 8.5 16.1875 8.5H3.8125C3.50184 8.5 3.25 8.24816 3.25 7.9375Z" fill="#2D1067"/>
  <path fill-rule="evenodd" clip-rule="evenodd" d="M8.59211 6.25C8.55536 6.24989 8.51895 6.25705 8.48498 6.27107C8.45101 6.28508 8.42014 6.30567 8.39416 6.33166C8.36817 6.35764 8.34758 6.38851 8.33357 6.42248C8.31955 6.45645 8.31239 6.49286 8.3125 6.52961L8.3125 6.53125V7.9375C8.3125 8.24816 8.06066 8.5 7.75 8.5C7.43934 8.5 7.1875 8.24816 7.1875 7.9375V6.53197C7.18708 6.34725 7.22313 6.16425 7.29357 5.99348C7.36413 5.82242 7.46782 5.667 7.59866 5.53616C7.7295 5.40532 7.88492 5.30163 8.05598 5.23107C8.22675 5.16063 8.40975 5.12458 8.59447 5.125H11.4055C11.5903 5.12458 11.7733 5.16063 11.944 5.23107C12.1151 5.30163 12.2705 5.40532 12.4013 5.53616C12.5322 5.667 12.6359 5.82243 12.7064 5.99348C12.7769 6.16429 12.8129 6.34732 12.8125 6.53209V7.9375C12.8125 8.24816 12.5607 8.5 12.25 8.5C11.9393 8.5 11.6875 8.24816 11.6875 7.9375V6.53125L11.6875 6.52961C11.6876 6.49286 11.6805 6.45645 11.6664 6.42248C11.6524 6.3885 11.6318 6.35764 11.6059 6.33166C11.5799 6.30567 11.549 6.28508 11.515 6.27107C11.4811 6.25705 11.4446 6.24989 11.4079 6.25L11.4063 6.25H8.59375L8.59211 6.25Z" fill="#2D1067"/>
  <path fill-rule="evenodd" clip-rule="evenodd" d="M10 9.625C10.3107 9.625 10.5625 9.87684 10.5625 10.1875V18.0625C10.5625 18.3732 10.3107 18.625 10 18.625C9.68934 18.625 9.4375 18.3732 9.4375 18.0625V10.1875C9.4375 9.87684 9.68934 9.625 10 9.625Z" fill="#2D1067"/>
  <path fill-rule="evenodd" clip-rule="evenodd" d="M7.44868 9.62537C7.75914 9.61428 8.01981 9.85697 8.0309 10.1674L8.31215 18.0424C8.32324 18.3529 8.08055 18.6136 7.77008 18.6246C7.45962 18.6357 7.19895 18.393 7.18787 18.0826L6.90662 10.2076C6.89553 9.89712 7.13822 9.63645 7.44868 9.62537Z" fill="#2D1067"/>
  <path fill-rule="evenodd" clip-rule="evenodd" d="M12.5513 9.62537C12.8618 9.63645 13.1045 9.89712 13.0934 10.2076L12.8121 18.0826C12.8011 18.393 12.5404 18.6357 12.2299 18.6246C11.9195 18.6136 11.6768 18.3529 11.6879 18.0424L11.9691 10.1674C11.9802 9.85697 12.2409 9.61428 12.5513 9.62537Z" fill="#2D1067"/>
</svg>
