<svg width="50" height="50" viewBox="0 0 50 50" fill="none" xmlns="http://www.w3.org/2000/svg">
<rect width="50" height="50" rx="25" fill="#5C5891" fill-opacity="0.14"/>
<path d="M29.6732 21.2194C29.072 20.6195 28.2724 20.2891 27.4224 20.2891H22.3034C21.4531 20.2891 20.6538 20.6195 20.0527 21.2194C19.4512 21.8193 19.1201 22.6172 19.1201 23.4654V30.7244C19.1201 31.7933 19.987 32.6643 21.0561 32.6738L21.4203 41.0407C21.4901 42.4506 22.6532 43.5549 24.0676 43.5549H25.6588C27.0732 43.5549 28.236 42.4506 28.3061 41.0407L28.6703 32.6738C29.7394 32.6643 30.6063 31.7936 30.6063 30.7244V23.4654C30.6063 22.6169 30.2751 21.8193 29.674 21.2194H29.6732Z" fill="black"/>
<path d="M27.7694 12.1706C27.0078 11.4106 25.9954 10.9922 24.9185 10.9922C23.8416 10.9922 22.8291 11.4106 22.0676 12.1706C21.306 12.9305 20.8867 13.9409 20.8867 15.0155C20.8867 16.0901 21.306 17.1004 22.0676 17.8604C22.8291 18.6203 23.8416 19.0387 24.9185 19.0387C25.9954 19.0387 27.0078 18.6203 27.7694 17.8604C28.5309 17.1004 28.9503 16.0901 28.9503 15.0155C28.9503 13.9409 28.5309 12.9303 27.7694 12.1706Z" fill="black"/>
<path d="M16.5568 18.1305C16.0787 17.6534 15.4428 17.3906 14.7668 17.3906H10.6957C10.0195 17.3906 9.38381 17.6534 8.9057 18.1305C8.42739 18.6076 8.16406 19.2422 8.16406 19.9167V25.6897C8.16406 26.5399 8.85345 27.2325 9.70371 27.2401L9.99337 33.8942C10.0489 35.0155 10.9739 35.8938 12.0988 35.8938H13.3642C14.4891 35.8938 15.4138 35.0155 15.4696 33.8942L15.7592 27.2401C16.6095 27.2325 17.2989 26.5401 17.2989 25.6897V19.9167C17.2989 19.2419 17.0356 18.6076 16.5575 18.1305H16.5568Z" fill="black"/>
<path d="M15.0421 10.9372C14.4364 10.3328 13.6312 10 12.7748 10C11.9184 10 11.1132 10.3328 10.5075 10.9372C9.90184 11.5415 9.56836 12.345 9.56836 13.1997C9.56836 14.0543 9.90184 14.8578 10.5075 15.4622C11.1132 16.0666 11.9184 16.3994 12.7748 16.3994C13.6312 16.3994 14.4364 16.0666 15.0421 15.4622C15.6477 14.8578 15.9812 14.0543 15.9812 13.1997C15.9812 12.345 15.6477 11.5413 15.0421 10.9372Z" fill="black"/>
<path d="M41.4631 18.1305C40.985 17.6534 40.3491 17.3906 39.6731 17.3906H35.602C34.9257 17.3906 34.2901 17.6534 33.812 18.1305C33.3336 18.6076 33.0703 19.2422 33.0703 19.9167V25.6897C33.0703 26.5399 33.7597 27.2325 34.61 27.2401L34.8996 33.8942C34.9552 35.0155 35.8801 35.8938 37.005 35.8938H38.2704C39.3953 35.8938 40.3201 35.0155 40.3758 33.8942L40.6655 27.2401C41.5157 27.2325 42.2051 26.5401 42.2051 25.6897V19.9167C42.2051 19.2419 41.9418 18.6076 41.4637 18.1305H41.4631Z" fill="black"/>
<path d="M39.9391 10.9372C39.3334 10.3328 38.5282 10 37.6718 10C36.8153 10 36.0101 10.3328 35.4045 10.9372C34.7988 11.5415 34.4653 12.345 34.4653 13.1997C34.4653 14.0543 34.7988 14.8578 35.4045 15.4622C36.0101 16.0666 36.8153 16.3994 37.6718 16.3994C38.5282 16.3994 39.3334 16.0666 39.9391 15.4622C40.5447 14.8578 40.8782 14.0543 40.8782 13.1997C40.8782 12.345 40.5447 11.5413 39.9391 10.9372Z" fill="black"/>
</svg>
