<svg width="50" height="50" viewBox="0 0 50 50" fill="none" xmlns="http://www.w3.org/2000/svg">
<rect width="50" height="50" rx="25" fill="#5C5891" fill-opacity="0.14"/>
<path d="M29.347 19.0293C28.7575 18.4411 27.9736 18.1172 27.1402 18.1172H22.1211C21.2875 18.1172 20.5038 18.4411 19.9143 19.0293C19.3246 19.6175 19 20.3998 19 21.2315V28.3487C19 29.3968 19.8499 30.2507 20.8981 30.2601L21.2553 38.4636C21.3237 39.846 22.464 40.9287 23.8509 40.9287H25.4109C26.7978 40.9287 27.9378 39.846 28.0066 38.4636L28.3637 30.2601C29.4119 30.2507 30.2618 29.397 30.2618 28.3487V21.2315C30.2618 20.3996 29.9372 19.6175 29.3477 19.0293H29.347Z" fill="black"/>
<path d="M27.4748 10.1554C26.7281 9.41026 25.7354 9 24.6796 9C23.6237 9 22.631 9.41026 21.8844 10.1554C21.1377 10.9005 20.7266 11.8911 20.7266 12.9447C20.7266 13.9983 21.1377 14.9889 21.8844 15.734C22.631 16.4791 23.6237 16.8894 24.6796 16.8894C25.7354 16.8894 26.7281 16.4791 27.4748 15.734C28.2215 14.9889 28.6326 13.9983 28.6326 12.9447C28.6326 11.8911 28.2215 10.9002 27.4748 10.1554Z" fill="black"/>
</svg>
