<svg width="52" height="50" viewBox="0 0 52 50" fill="none" xmlns="http://www.w3.org/2000/svg">
<path d="M0 25C0 11.1929 11.1929 0 25 0H26.5389C40.3461 0 51.539 11.1929 51.539 25C51.539 38.8071 40.3461 50 26.539 50H25C11.1929 50 0 38.8071 0 25Z" fill="#5C5891" fill-opacity="0.14"/>
<path d="M17.7912 19.4196C17.2334 18.8669 16.4916 18.5625 15.7029 18.5625H10.9535C10.1646 18.5625 9.42299 18.8669 8.86522 19.4196C8.30721 19.9724 8 20.7075 8 21.489V28.177C8 29.1619 8.80425 29.9643 9.79619 29.9731L10.1341 37.6819C10.1989 38.9809 11.278 39.9984 12.5903 39.9984H14.0666C15.3789 39.9984 16.4578 38.9809 16.5228 37.6819L16.8607 29.9731C17.8527 29.9643 18.6569 29.1621 18.6569 28.177V21.489C18.6569 20.7073 18.3497 19.9724 17.7919 19.4196H17.7912Z" fill="black"/>
<path d="M16.0264 11.0857C15.3198 10.3855 14.3805 10 13.3813 10C12.3822 10 11.4428 10.3855 10.7362 11.0857C10.0297 11.7859 9.64062 12.7167 9.64062 13.7068C9.64062 14.6969 10.0297 15.6278 10.7362 16.3279C11.4428 17.0281 12.3822 17.4136 13.3813 17.4136C14.3805 17.4136 15.3198 17.0281 16.0264 16.3279C16.733 15.6278 17.122 14.6969 17.122 13.7068C17.122 12.7167 16.733 11.7856 16.0264 11.0857Z" fill="black"/>
<path d="M43.135 19.4196C42.5772 18.8669 41.8353 18.5625 41.0467 18.5625H36.2972C35.5083 18.5625 34.7667 18.8669 34.209 19.4196C33.651 19.9724 33.3438 20.7075 33.3438 21.489V28.177C33.3438 29.1619 34.148 29.9643 35.1399 29.9731L35.4779 37.6819C35.5427 38.9809 36.6217 39.9984 37.9341 39.9984H39.4103C40.7227 39.9984 41.8015 38.9809 41.8665 37.6819L42.2045 29.9731C43.1964 29.9643 44.0007 29.1621 44.0007 28.177V21.489C44.0007 20.7073 43.6935 19.9724 43.1357 19.4196H43.135Z" fill="black"/>
<path d="M41.3702 11.0857C40.6636 10.3855 39.7242 10 38.7251 10C37.7259 10 36.7866 10.3855 36.08 11.0857C35.3734 11.7859 34.9844 12.7167 34.9844 13.7068C34.9844 14.6969 35.3734 15.6278 36.08 16.3279C36.7866 17.0281 37.7259 17.4136 38.7251 17.4136C39.7242 17.4136 40.6636 17.0281 41.3702 16.3279C42.0767 15.6278 42.4658 14.6969 42.4658 13.7068C42.4658 12.7167 42.0767 11.7856 41.3702 11.0857Z" fill="black"/>
<path d="M19.7031 25.4766L25.4218 28.7783L25.4218 22.1749L19.7031 25.4766ZM32.3717 25.4766L26.653 22.1749L26.653 28.7783L32.3717 25.4766ZM24.85 25.4766L24.85 26.0484L27.2249 26.0484L27.2249 25.4766L27.2249 24.9047L24.85 24.9047L24.85 25.4766Z" fill="black"/>
</svg>
