<svg width="18" height="18" viewBox="0 0 18 18" fill="none" xmlns="http://www.w3.org/2000/svg">
<g style="mix-blend-mode:plus-darker" clip-path="url(#clip0_10_1022)">
<path d="M15.1927 9.29355C15.0622 9.14758 14.9902 8.95992 14.9902 8.76562C14.9902 8.57133 15.0622 8.38367 15.1927 8.2377L16.235 7.08585C16.3499 6.96001 16.4212 6.80165 16.4387 6.63352C16.4563 6.46539 16.4192 6.29611 16.3327 6.14998L14.7041 3.38236C14.6186 3.23639 14.4883 3.12069 14.3318 3.05175C14.1754 2.98281 14.0007 2.96414 13.8328 2.99841L12.302 3.30237C12.1072 3.34191 11.9044 3.31004 11.7319 3.21278C11.5594 3.11552 11.429 2.9596 11.3655 2.77444L10.8688 1.31064C10.8142 1.15176 10.7101 1.01377 10.5713 0.916166C10.4325 0.818561 10.2659 0.76628 10.0952 0.766713H6.83804C6.66047 0.757608 6.48474 0.805849 6.3377 0.904065C6.19067 1.00228 6.0804 1.14508 6.02374 1.31064L5.56773 2.77444C5.50422 2.9596 5.37391 3.11552 5.20139 3.21278C5.02888 3.31004 4.82609 3.34191 4.63129 3.30237L3.0597 2.99841C2.90055 2.97632 2.7383 3.00099 2.59339 3.06931C2.44849 3.13764 2.32741 3.24656 2.2454 3.38236L0.616812 6.14998C0.528184 6.29448 0.488334 6.46281 0.502959 6.63089C0.517584 6.79898 0.585935 6.95822 0.698241 7.08585L1.7324 8.2377C1.86295 8.38367 1.93494 8.57133 1.93494 8.76562C1.93494 8.95992 1.86295 9.14758 1.7324 9.29355L0.698241 10.4454C0.585935 10.573 0.517584 10.7323 0.502959 10.9004C0.488334 11.0684 0.528184 11.2368 0.616812 11.3813L2.2454 14.1489C2.33099 14.2949 2.46129 14.4106 2.61774 14.4795C2.7742 14.5484 2.94881 14.5671 3.1167 14.5328L4.64758 14.2289C4.84237 14.1893 5.04516 14.2212 5.21768 14.3185C5.3902 14.4157 5.52051 14.5716 5.58402 14.7568L6.08074 16.2206C6.1374 16.3862 6.24767 16.529 6.39471 16.6272C6.54174 16.7254 6.71747 16.7736 6.89504 16.7645H10.1522C10.3229 16.765 10.4895 16.7127 10.6283 16.6151C10.7671 16.5175 10.8712 16.3795 10.9258 16.2206L11.4225 14.7568C11.486 14.5716 11.6164 14.4157 11.7889 14.3185C11.9614 14.2212 12.1642 14.1893 12.359 14.2289L13.8898 14.5328C14.0577 14.5671 14.2324 14.5484 14.3888 14.4795C14.5453 14.4106 14.6756 14.2949 14.7611 14.1489L16.3897 11.3813C16.4762 11.2351 16.5133 11.0659 16.4958 10.8977C16.4782 10.7296 16.4069 10.5712 16.292 10.4454L15.1927 9.29355ZM13.9794 10.3654L14.6309 11.0853L13.5886 12.8611L12.6277 12.6691C12.0412 12.5513 11.4311 12.6492 10.9133 12.9441C10.3954 13.239 10.0058 13.7104 9.81836 14.2689L9.50893 15.1648H7.42433L7.13118 14.2529C6.94378 13.6944 6.55416 13.223 6.03628 12.9281C5.51841 12.6332 4.90833 12.5353 4.32186 12.6531L3.36099 12.8451L2.30241 11.0773L2.95384 10.3574C3.35444 9.91745 3.57591 9.34789 3.57591 8.75763C3.57591 8.16736 3.35444 7.5978 2.95384 7.15784L2.30241 6.43794L3.3447 4.67818L4.30557 4.87015C4.89205 4.98792 5.50213 4.89006 6.02 4.59515C6.53787 4.30025 6.92749 3.82882 7.1149 3.27037L7.42433 2.3665H9.50893L9.81836 3.27837C10.0058 3.83682 10.3954 4.30824 10.9133 4.60315C11.4311 4.89806 12.0412 4.99592 12.6277 4.87815L13.5886 4.68618L14.6309 6.46194L13.9794 7.18184C13.5833 7.62079 13.3646 8.18705 13.3646 8.77362C13.3646 9.3602 13.5833 9.92646 13.9794 10.3654ZM8.46663 5.56606C7.82242 5.56606 7.19268 5.75371 6.65703 6.10528C6.12139 6.45686 5.70391 6.95656 5.45738 7.5412C5.21085 8.12585 5.14635 8.76917 5.27203 9.38983C5.39771 10.0105 5.70793 10.5806 6.16345 11.0281C6.61898 11.4755 7.19935 11.7803 7.83118 11.9037C8.46302 12.0272 9.11793 11.9638 9.7131 11.7216C10.3083 11.4795 10.817 11.0694 11.1749 10.5432C11.5328 10.017 11.7238 9.39844 11.7238 8.76562C11.7238 7.91705 11.3806 7.10323 10.7698 6.50319C10.159 5.90316 9.33049 5.56606 8.46663 5.56606ZM8.46663 10.3654C8.14453 10.3654 7.82965 10.2716 7.56183 10.0958C7.29401 9.92001 7.08527 9.67016 6.96201 9.37784C6.83874 9.08551 6.80649 8.76385 6.86933 8.45352C6.93217 8.1432 7.08728 7.85814 7.31504 7.63441C7.5428 7.41068 7.83299 7.25831 8.14891 7.19658C8.46482 7.13485 8.79228 7.16653 9.08987 7.28762C9.38745 7.4087 9.6418 7.61375 9.82076 7.87683C9.99971 8.13992 10.0952 8.44922 10.0952 8.76562C10.0952 9.18991 9.92364 9.59682 9.61822 9.89684C9.3128 10.1969 8.89856 10.3654 8.46663 10.3654Z" fill="#0D063C"/>
</g>
<defs>
<clipPath id="clip0_10_1022">
<rect width="18" height="18" fill="white"/>
</clipPath>
</defs>
</svg>
