<svg width="11" height="13" viewBox="0 0 11 13" fill="none" xmlns="http://www.w3.org/2000/svg">
<path d="M0 11.2324V1.06641C0 0.700195 0.090332 0.431641 0.270996 0.260742C0.45166 0.0849609 0.666504 -0.00292969 0.915527 -0.00292969C1.13525 -0.00292969 1.35986 0.0605469 1.58936 0.1875L10.1221 5.17529C10.4248 5.35107 10.6348 5.50977 10.752 5.65137C10.874 5.78809 10.9351 5.9541 10.9351 6.14941C10.9351 6.33984 10.874 6.50586 10.752 6.64746C10.6348 6.78906 10.4248 6.94775 10.1221 7.12354L1.58936 12.1113C1.35986 12.2383 1.13525 12.3018 0.915527 12.3018C0.666504 12.3018 0.45166 12.2139 0.270996 12.0381C0.090332 11.8623 0 11.5938 0 11.2324Z" fill="white"/>
</svg>
