<svg width="188" height="42" viewBox="0 0 188 42" fill="none" xmlns="http://www.w3.org/2000/svg">
<g style="mix-blend-mode:plus-lighter">
<path d="M0 21C0 9.40202 9.40202 0 21 0H167C178.598 0 188 9.40202 188 21C188 32.598 178.598 42 167 42H21C9.40203 42 0 32.598 0 21Z" fill="#F16600"/>
</g>
<path d="M25.4775 27V15.022H27.3369L33.7617 24.0283L32.2842 23.2729H33.355V15.022H35.4136V27H33.5625L27.1377 17.9854L28.6152 18.7407H27.5444V27H25.4775ZM41.5359 27.1826C40.6339 27.1826 39.8591 26.9917 39.2117 26.6099C38.5698 26.228 38.0745 25.6857 37.7258 24.9829C37.3772 24.2801 37.2029 23.4473 37.2029 22.4844V22.4761C37.2029 21.5243 37.3744 20.6942 37.7175 19.9858C38.0662 19.2775 38.5587 18.7297 39.1951 18.3423C39.8315 17.9494 40.5785 17.7529 41.4363 17.7529C42.2996 17.7529 43.0411 17.9438 43.6609 18.3257C44.2862 18.702 44.7677 19.2305 45.1052 19.9111C45.4428 20.5918 45.6116 21.3887 45.6116 22.3018V22.9824H38.2405V21.5962H44.5989L43.6194 22.8911V22.0693C43.6194 21.4661 43.5281 20.9653 43.3455 20.5669C43.1629 20.1685 42.9083 19.8696 42.5818 19.6704C42.2608 19.4712 41.8873 19.3716 41.4612 19.3716C41.0351 19.3716 40.656 19.4767 40.324 19.687C39.9975 19.8918 39.7374 20.1961 39.5437 20.6001C39.3556 20.9985 39.2615 21.4883 39.2615 22.0693V22.8994C39.2615 23.4583 39.3556 23.937 39.5437 24.3354C39.7319 24.7284 39.9975 25.0327 40.3406 25.2485C40.6892 25.4588 41.1015 25.564 41.5774 25.564C41.9482 25.564 42.2664 25.5114 42.532 25.4062C42.8032 25.2956 43.0217 25.1655 43.1878 25.0161C43.3538 24.8612 43.47 24.7145 43.5364 24.5762L43.5613 24.5181H45.5203L45.5037 24.5928C45.4317 24.8861 45.2989 25.1849 45.1052 25.4893C44.9171 25.7881 44.6598 26.0675 44.3333 26.3276C44.0123 26.5822 43.6194 26.7897 43.1546 26.9502C42.6897 27.1051 42.1502 27.1826 41.5359 27.1826ZM48.8037 27L46.3384 17.9272H48.4136L49.916 24.7505H50.0654L51.8086 17.9272H53.7759L55.5274 24.7505H55.6768L57.1792 17.9272H59.2295L56.7642 27H54.606L52.8379 20.4258H52.6968L50.937 27H48.8037ZM68.9009 27.2988C67.9712 27.2988 67.1633 27.1549 66.4771 26.8672C65.7964 26.5794 65.2596 26.1782 64.8667 25.6636C64.4738 25.1489 64.2525 24.5485 64.2027 23.8623L64.1944 23.7461H66.2696L66.2779 23.8291C66.3111 24.1667 66.4439 24.46 66.6763 24.709C66.9143 24.958 67.2297 25.1545 67.6226 25.2983C68.0155 25.4367 68.4637 25.5059 68.9673 25.5059C69.4488 25.5059 69.8749 25.4312 70.2456 25.2817C70.6164 25.1323 70.9069 24.9276 71.1172 24.6675C71.3275 24.4019 71.4327 24.0975 71.4327 23.7544V23.7461C71.4327 23.3145 71.2639 22.9631 70.9263 22.6919C70.5887 22.4152 70.0326 22.1938 69.2579 22.0278L67.9712 21.7622C66.7427 21.5021 65.849 21.0871 65.2901 20.5171C64.7367 19.9416 64.46 19.2083 64.46 18.3174V18.3091C64.46 17.5952 64.6482 16.9699 65.0245 16.4331C65.4063 15.8963 65.9292 15.4785 66.5933 15.1797C67.2629 14.8753 68.0293 14.7231 68.8926 14.7231C69.778 14.7231 70.5445 14.8726 71.1919 15.1714C71.8394 15.4647 72.3485 15.8659 72.7193 16.375C73.09 16.8841 73.2976 17.4596 73.3418 18.1016L73.3501 18.2095H71.3081L71.2915 18.1099C71.2417 17.7944 71.1117 17.5205 70.9014 17.2881C70.6967 17.0501 70.4227 16.862 70.0796 16.7236C69.7365 16.5853 69.3353 16.5161 68.876 16.5161C68.4388 16.5161 68.0487 16.5853 67.7056 16.7236C67.3625 16.8564 67.0913 17.0446 66.8921 17.2881C66.6984 17.5316 66.6016 17.8249 66.6016 18.168V18.1763C66.6016 18.5968 66.7648 18.9455 67.0913 19.2222C67.4234 19.4989 67.9629 19.7147 68.71 19.8696L69.9966 20.1436C70.8378 20.3206 71.5212 20.5558 72.0469 20.8491C72.5726 21.1424 72.9572 21.5076 73.2007 21.9448C73.4497 22.3765 73.5743 22.8966 73.5743 23.5054V23.5137C73.5743 24.2884 73.3833 24.958 73.0015 25.5225C72.6252 26.0869 72.0857 26.5241 71.3829 26.834C70.6856 27.1439 69.8583 27.2988 68.9009 27.2988ZM75.2806 27V17.9272H77.3392V27H75.2806ZM76.3182 16.4082C75.9806 16.4082 75.6901 16.2892 75.4466 16.0513C75.2031 15.8133 75.0813 15.5283 75.0813 15.1963C75.0813 14.8532 75.2031 14.5654 75.4466 14.333C75.6901 14.0951 75.9806 13.9761 76.3182 13.9761C76.6557 13.9761 76.9435 14.0951 77.1814 14.333C77.4249 14.5654 77.5467 14.8532 77.5467 15.1963C77.5467 15.5283 77.4249 15.8133 77.1814 16.0513C76.9435 16.2892 76.6557 16.4082 76.3182 16.4082ZM79.3775 27V17.9272H81.4444V19.3384H81.5855C81.7792 18.8348 82.0919 18.4447 82.5235 18.168C82.9607 17.8913 83.4781 17.7529 84.0757 17.7529C84.4852 17.7529 84.8532 17.8193 85.1797 17.9521C85.5118 18.085 85.7968 18.2731 86.0347 18.5166C86.2727 18.7601 86.4553 19.0506 86.5826 19.3882H86.732C86.8814 19.0617 87.0889 18.7767 87.3545 18.5332C87.6257 18.2842 87.9411 18.0933 88.3008 17.9604C88.6661 17.8221 89.059 17.7529 89.4795 17.7529C90.0883 17.7529 90.6085 17.8747 91.0401 18.1182C91.4773 18.3561 91.8121 18.6992 92.0445 19.1475C92.2824 19.5957 92.4014 20.1325 92.4014 20.7578V27H90.3345V21.2642C90.3345 20.8657 90.2737 20.5365 90.1519 20.2764C90.0357 20.0163 89.8559 19.8198 89.6124 19.687C89.3689 19.5542 89.0617 19.4878 88.691 19.4878C88.3313 19.4878 88.0186 19.5708 87.753 19.7368C87.4874 19.8973 87.2798 20.1159 87.1304 20.3926C86.9865 20.6693 86.9146 20.9819 86.9146 21.3306V27H84.8477V21.1147C84.8477 20.7772 84.7813 20.4867 84.6485 20.2432C84.5212 19.9997 84.3331 19.8143 84.084 19.687C83.8406 19.5542 83.55 19.4878 83.2125 19.4878C82.8749 19.4878 82.5705 19.5763 82.2994 19.7534C82.0337 19.925 81.8235 20.1629 81.6685 20.4673C81.5191 20.7661 81.4444 21.1037 81.4444 21.48V27H79.3775ZM97.3284 27.1826C96.6533 27.1826 96.0861 27.0526 95.6268 26.7925C95.1675 26.5269 94.8216 26.1423 94.5892 25.6387C94.3568 25.1296 94.2405 24.5153 94.2405 23.7959V17.9272H96.3074V23.3228C96.3074 24.0256 96.4458 24.554 96.7225 24.9082C96.9992 25.2624 97.4502 25.4395 98.0755 25.4395C98.4075 25.4395 98.7008 25.3896 98.9554 25.29C99.2155 25.1849 99.4313 25.0355 99.6029 24.8418C99.7744 24.6481 99.9044 24.4157 99.993 24.1445C100.082 23.8678 100.126 23.5579 100.126 23.2148V17.9272H102.193V27H100.126V25.6221H99.9847C99.8463 25.943 99.6527 26.2225 99.4036 26.4604C99.1546 26.6929 98.8558 26.8727 98.5071 27C98.1585 27.1217 97.7656 27.1826 97.3284 27.1826ZM104.289 27V14.416H106.356V27H104.289ZM110.918 27.1494C110.348 27.1494 109.836 27.0387 109.382 26.8174C108.934 26.596 108.58 26.2834 108.32 25.8794C108.065 25.4699 107.938 24.9884 107.938 24.4351V24.4185C107.938 23.8817 108.071 23.4196 108.336 23.0322C108.602 22.6393 108.992 22.3322 109.507 22.1108C110.021 21.8895 110.647 21.7594 111.383 21.7207L114.736 21.5132V22.8745L111.673 23.0737C111.092 23.1069 110.663 23.2287 110.387 23.439C110.11 23.6493 109.972 23.9425 109.972 24.3188V24.3354C109.972 24.7228 110.118 25.0244 110.411 25.2402C110.71 25.4561 111.089 25.564 111.549 25.564C111.964 25.564 112.334 25.481 112.661 25.3149C112.987 25.1489 113.245 24.9248 113.433 24.6426C113.621 24.3548 113.715 24.0311 113.715 23.6714V20.7993C113.715 20.3455 113.571 19.9997 113.284 19.7617C112.996 19.5182 112.57 19.3965 112.005 19.3965C111.535 19.3965 111.15 19.4795 110.851 19.6455C110.553 19.806 110.351 20.0356 110.245 20.3345L110.237 20.3677H108.286L108.295 20.293C108.361 19.7839 108.56 19.3384 108.892 18.9565C109.224 18.5747 109.664 18.2786 110.212 18.0684C110.76 17.8581 111.391 17.7529 112.105 17.7529C112.891 17.7529 113.555 17.8747 114.097 18.1182C114.639 18.3561 115.052 18.7048 115.334 19.1641C115.616 19.6178 115.757 20.1629 115.757 20.7993V27H113.715V25.7549H113.574C113.408 26.0426 113.192 26.2917 112.927 26.502C112.667 26.7122 112.368 26.8727 112.03 26.9834C111.693 27.0941 111.322 27.1494 110.918 27.1494ZM121.298 27.0415C120.258 27.0415 119.508 26.8506 119.049 26.4688C118.59 26.0869 118.36 25.4616 118.36 24.5928V19.5293H116.949V17.9272H118.36V15.7026H120.46V17.9272H122.369V19.5293H120.46V24.103C120.46 24.5513 120.554 24.8805 120.742 25.0908C120.936 25.2956 121.246 25.3979 121.672 25.3979C121.821 25.3979 121.943 25.3952 122.037 25.3896C122.137 25.3786 122.247 25.3675 122.369 25.3564V26.9502C122.225 26.9779 122.059 27 121.871 27.0166C121.689 27.0332 121.498 27.0415 121.298 27.0415ZM123.951 27V17.9272H126.01V27H123.951ZM124.989 16.4082C124.651 16.4082 124.361 16.2892 124.117 16.0513C123.874 15.8133 123.752 15.5283 123.752 15.1963C123.752 14.8532 123.874 14.5654 124.117 14.333C124.361 14.0951 124.651 13.9761 124.989 13.9761C125.326 13.9761 125.614 14.0951 125.852 14.333C126.095 14.5654 126.217 14.8532 126.217 15.1963C126.217 15.5283 126.095 15.8133 125.852 16.0513C125.614 16.2892 125.326 16.4082 124.989 16.4082ZM131.966 27.1826C131.064 27.1826 130.286 26.9945 129.633 26.6182C128.98 26.2363 128.477 25.694 128.123 24.9912C127.774 24.2884 127.6 23.4473 127.6 22.4678V22.4512C127.6 21.4827 127.777 20.6471 128.131 19.9443C128.485 19.236 128.986 18.6937 129.633 18.3174C130.286 17.9411 131.064 17.7529 131.966 17.7529C132.868 17.7529 133.643 17.9411 134.29 18.3174C134.943 18.6937 135.447 19.2332 135.801 19.936C136.155 20.6388 136.332 21.4772 136.332 22.4512V22.4678C136.332 23.4473 136.155 24.2884 135.801 24.9912C135.452 25.694 134.951 26.2363 134.298 26.6182C133.651 26.9945 132.873 27.1826 131.966 27.1826ZM131.966 25.5059C132.442 25.5059 132.846 25.3869 133.178 25.1489C133.515 24.9054 133.773 24.5596 133.95 24.1113C134.127 23.6576 134.215 23.1125 134.215 22.4761V22.4595C134.215 21.8175 134.127 21.2725 133.95 20.8242C133.773 20.3704 133.515 20.0246 133.178 19.7866C132.846 19.5431 132.442 19.4214 131.966 19.4214C131.49 19.4214 131.083 19.5431 130.746 19.7866C130.408 20.0246 130.151 20.3704 129.974 20.8242C129.797 21.2725 129.708 21.8175 129.708 22.4595V22.4761C129.708 23.1125 129.797 23.6576 129.974 24.1113C130.151 24.5651 130.405 24.911 130.737 25.1489C131.075 25.3869 131.484 25.5059 131.966 25.5059ZM137.897 27V17.9272H139.964V19.3218H140.105C140.321 18.8293 140.648 18.4447 141.085 18.168C141.522 17.8913 142.067 17.7529 142.72 17.7529C143.733 17.7529 144.508 18.0462 145.044 18.6328C145.581 19.2194 145.849 20.0522 145.849 21.1313V27H143.783V21.6128C143.783 20.9045 143.633 20.3732 143.334 20.019C143.041 19.6649 142.582 19.4878 141.956 19.4878C141.547 19.4878 141.193 19.5791 140.894 19.7617C140.595 19.9443 140.365 20.2017 140.205 20.5337C140.044 20.8657 139.964 21.2586 139.964 21.7124V27H137.897Z" fill="white"/>
<path d="M158.305 26.2949V16.1289C158.305 15.7627 158.396 15.4941 158.576 15.3232C158.757 15.1475 158.972 15.0596 159.221 15.0596C159.44 15.0596 159.665 15.123 159.895 15.25L168.427 20.2378C168.73 20.4136 168.94 20.5723 169.057 20.7139C169.179 20.8506 169.24 21.0166 169.24 21.2119C169.24 21.4023 169.179 21.5684 169.057 21.71C168.94 21.8516 168.73 22.0103 168.427 22.186L159.895 27.1738C159.665 27.3008 159.44 27.3643 159.221 27.3643C158.972 27.3643 158.757 27.2764 158.576 27.1006C158.396 26.9248 158.305 26.6562 158.305 26.2949Z" fill="white"/>
</svg>
