<svg width="16" height="16" viewBox="0 0 16 16" fill="none" xmlns="http://www.w3.org/2000/svg">
<path d="M0 6.35938C0 5.48438 0.164062 4.66406 0.492188 3.89844C0.825521 3.1276 1.28385 2.45052 1.86719 1.86719C2.45052 1.27865 3.125 0.820312 3.89062 0.492188C4.66146 0.164062 5.48438 0 6.35938 0C7.23958 0 8.0625 0.164062 8.82812 0.492188C9.59896 0.820312 10.276 1.27865 10.8594 1.86719C11.4427 2.45052 11.8984 3.1276 12.2266 3.89844C12.5599 4.66406 12.7266 5.48438 12.7266 6.35938C12.7266 7.04688 12.6198 7.70052 12.4062 8.32031C12.1979 8.9401 11.9089 9.50521 11.5391 10.0156L15.1016 13.5938C15.2109 13.6979 15.2917 13.8203 15.3438 13.9609C15.401 14.1016 15.4297 14.25 15.4297 14.4062C15.4297 14.625 15.3802 14.8229 15.2812 15C15.1823 15.1771 15.0469 15.3151 14.875 15.4141C14.7031 15.5182 14.5052 15.5703 14.2812 15.5703C14.125 15.5703 13.974 15.5417 13.8281 15.4844C13.6875 15.4323 13.5599 15.349 13.4453 15.2344L9.85938 11.6484C9.35938 11.9818 8.8125 12.2448 8.21875 12.4375C7.63021 12.625 7.01042 12.7188 6.35938 12.7188C5.48438 12.7188 4.66146 12.5547 3.89062 12.2266C3.125 11.8984 2.45052 11.4427 1.86719 10.8594C1.28385 10.276 0.825521 9.60156 0.492188 8.83594C0.164062 8.0651 0 7.23958 0 6.35938ZM1.63281 6.35938C1.63281 7.01562 1.7526 7.63021 1.99219 8.20312C2.23698 8.77083 2.57552 9.27083 3.00781 9.70312C3.44531 10.1354 3.95052 10.4766 4.52344 10.7266C5.09635 10.9714 5.70833 11.0938 6.35938 11.0938C7.01562 11.0938 7.6276 10.9714 8.19531 10.7266C8.76823 10.4766 9.27083 10.1354 9.70312 9.70312C10.1354 9.27083 10.474 8.77083 10.7188 8.20312C10.9688 7.63021 11.0938 7.01562 11.0938 6.35938C11.0938 5.70833 10.9688 5.09635 10.7188 4.52344C10.474 3.95052 10.1354 3.44792 9.70312 3.01562C9.27083 2.57812 8.76823 2.23958 8.19531 2C7.6276 1.75521 7.01562 1.63281 6.35938 1.63281C5.70833 1.63281 5.09635 1.75521 4.52344 2C3.95052 2.23958 3.44531 2.57812 3.00781 3.01562C2.57552 3.44792 2.23698 3.95052 1.99219 4.52344C1.7526 5.09635 1.63281 5.70833 1.63281 6.35938Z" fill="#5F5E5E"/>
</svg>
